<?xml version="1.0" encoding="UTF-8"?>
<svg xmlns="http://www.w3.org/2000/svg" xmlns:xlink="http://www.w3.org/1999/xlink" width="288pt" height="109pt" viewBox="0 0 288 109" version="1.1">
<g id="surface1">
<path style="fill-rule:nonzero;fill:rgb(100%,100%,100%);fill-opacity:1;stroke-width:1;stroke-linecap:round;stroke-linejoin:round;stroke:rgb(0%,0%,0%);stroke-opacity:1;stroke-miterlimit:10;" d="M 30 30 L 60 30 L 60 60 L 30 60 Z M 30 30 " transform="matrix(1.25,0,0,1.25,-36.25,32.5)"/>
<path style=" stroke:none;fill-rule:nonzero;fill:rgb(0%,0%,0%);fill-opacity:1;" d="M 17.167969 91.875 L 19.707031 88.90625 L 18.261719 86.035156 L 19.355469 86.035156 L 19.84375 87.070312 C 20.023438 87.460938 20.1875 87.84375 20.332031 88.203125 L 22.03125 86.035156 L 23.242188 86.035156 L 20.78125 88.984375 L 22.265625 91.875 L 21.152344 91.875 L 20.585938 90.683594 C 20.453125 90.4375 20.3125 90.125 20.15625 89.746094 L 18.417969 91.875 Z M 17.167969 91.875 "/>
<path style="fill-rule:nonzero;fill:rgb(100%,100%,100%);fill-opacity:1;stroke-width:1;stroke-linecap:round;stroke-linejoin:round;stroke:rgb(0%,0%,0%);stroke-opacity:1;stroke-miterlimit:10;" d="M 80 30 L 110 30 L 110 60 L 80 60 Z M 80 30 " transform="matrix(1.25,0,0,1.25,-36.25,32.5)"/>
<path style=" stroke:none;fill-rule:nonzero;fill:rgb(0%,0%,0%);fill-opacity:1;" d="M 71.757812 89.816406 L 72.8125 84.757812 L 71.933594 84.757812 L 72.089844 83.976562 L 72.988281 83.976562 L 73.144531 83.15625 C 73.234375 82.742188 73.324219 82.441406 73.417969 82.257812 C 73.507812 82.078125 73.65625 81.925781 73.867188 81.808594 C 74.085938 81.691406 74.378906 81.632812 74.746094 81.632812 C 74.992188 81.632812 75.355469 81.6875 75.839844 81.789062 L 75.664062 82.648438 C 75.320312 82.558594 75.039062 82.511719 74.804688 82.511719 C 74.609375 82.511719 74.457031 82.566406 74.355469 82.667969 C 74.261719 82.761719 74.179688 82.988281 74.101562 83.351562 L 73.984375 83.976562 L 75.078125 83.976562 L 74.921875 84.757812 L 73.808594 84.757812 L 72.753906 89.816406 Z M 71.757812 89.816406 "/>
<path style=" stroke:none;fill-rule:nonzero;fill:rgb(0%,0%,0%);fill-opacity:1;" d="M 77.089844 94.816406 L 78.359375 88.742188 C 77.8125 89.171875 77.035156 89.519531 76.035156 89.777344 L 76.230469 88.878906 C 76.722656 88.671875 77.210938 88.410156 77.695312 88.097656 C 78.175781 87.785156 78.535156 87.507812 78.769531 87.257812 C 78.925781 87.117188 79.066406 86.941406 79.199219 86.730469 L 79.765625 86.730469 L 78.085938 94.816406 Z M 77.089844 94.816406 "/>
<path style=" stroke:none;fill-rule:nonzero;fill:rgb(0%,0%,0%);fill-opacity:1;" d="M 82.449219 92.179688 C 81.871094 90.914062 81.589844 89.621094 81.589844 88.292969 C 81.589844 87.410156 81.695312 86.589844 81.921875 85.832031 C 82.15625 85.066406 82.511719 84.308594 82.996094 83.566406 C 83.308594 83.058594 83.804688 82.414062 84.5 81.632812 L 85.28125 81.632812 C 84.851562 82.089844 84.390625 82.734375 83.914062 83.566406 C 83.445312 84.386719 83.097656 85.203125 82.878906 86.007812 C 82.652344 86.816406 82.546875 87.625 82.546875 88.429688 C 82.546875 89.640625 82.761719 90.890625 83.191406 92.179688 Z M 82.449219 92.179688 "/>
<path style=" stroke:none;fill-rule:nonzero;fill:rgb(0%,0%,0%);fill-opacity:1;" d="M 84.359375 89.816406 L 86.898438 86.847656 L 85.453125 83.976562 L 86.546875 83.976562 L 87.035156 85.011719 C 87.214844 85.402344 87.375 85.78125 87.523438 86.144531 L 89.222656 83.976562 L 90.433594 83.976562 L 87.972656 86.925781 L 89.457031 89.816406 L 88.34375 89.816406 L 87.777344 88.625 C 87.644531 88.378906 87.503906 88.066406 87.347656 87.6875 L 85.609375 89.816406 Z M 84.359375 89.816406 "/>
<path style=" stroke:none;fill-rule:nonzero;fill:rgb(0%,0%,0%);fill-opacity:1;" d="M 92.230469 81.632812 C 92.816406 82.882812 93.109375 84.171875 93.109375 85.5 C 93.109375 86.398438 92.992188 87.234375 92.757812 88 C 92.523438 88.757812 92.160156 89.503906 91.683594 90.246094 C 91.371094 90.738281 90.867188 91.382812 90.179688 92.179688 L 89.398438 92.179688 C 89.828125 91.71875 90.28125 91.074219 90.765625 90.246094 C 91.242188 89.414062 91.589844 88.601562 91.800781 87.804688 C 92.019531 87 92.132812 86.191406 92.132812 85.382812 C 92.132812 84.171875 91.917969 82.921875 91.488281 81.632812 Z M 92.230469 81.632812 "/>
<path style="fill-rule:nonzero;fill:rgb(100%,100%,100%);fill-opacity:1;stroke-width:1;stroke-linecap:round;stroke-linejoin:round;stroke:rgb(0%,0%,0%);stroke-opacity:1;stroke-miterlimit:10;" d="M 130 30 L 160 30 L 160 60 L 130 60 Z M 130 30 " transform="matrix(1.25,0,0,1.25,-36.25,32.5)"/>
<path style=" stroke:none;fill-rule:nonzero;fill:rgb(0%,0%,0%);fill-opacity:1;" d="M 134.257812 89.816406 L 135.3125 84.757812 L 134.433594 84.757812 L 134.589844 83.976562 L 135.488281 83.976562 L 135.644531 83.15625 C 135.734375 82.742188 135.824219 82.441406 135.917969 82.257812 C 136.007812 82.078125 136.15625 81.925781 136.367188 81.808594 C 136.585938 81.691406 136.878906 81.632812 137.246094 81.632812 C 137.492188 81.632812 137.855469 81.6875 138.339844 81.789062 L 138.164062 82.648438 C 137.820312 82.558594 137.539062 82.511719 137.304688 82.511719 C 137.109375 82.511719 136.957031 82.566406 136.855469 82.667969 C 136.761719 82.761719 136.679688 82.988281 136.601562 83.351562 L 136.484375 83.976562 L 137.578125 83.976562 L 137.421875 84.757812 L 136.308594 84.757812 L 135.253906 89.816406 Z M 134.257812 89.816406 "/>
<path style=" stroke:none;fill-rule:nonzero;fill:rgb(0%,0%,0%);fill-opacity:1;" d="M 137.539062 94.816406 C 137.640625 94.335938 137.777344 93.933594 137.949219 93.605469 C 138.128906 93.28125 138.371094 92.976562 138.671875 92.6875 C 138.984375 92.402344 139.5625 91.914062 140.410156 91.222656 C 140.929688 90.808594 141.289062 90.5 141.484375 90.304688 C 141.757812 90.019531 141.957031 89.738281 142.089844 89.464844 C 142.167969 89.285156 142.207031 89.082031 142.207031 88.859375 C 142.207031 88.484375 142.074219 88.171875 141.816406 87.921875 C 141.554688 87.664062 141.234375 87.53125 140.859375 87.53125 C 140.480469 87.53125 140.148438 87.664062 139.863281 87.921875 C 139.574219 88.183594 139.375 88.601562 139.257812 89.171875 L 138.28125 89.035156 C 138.382812 88.320312 138.664062 87.761719 139.121094 87.355469 C 139.574219 86.941406 140.148438 86.730469 140.839844 86.730469 C 141.292969 86.730469 141.703125 86.828125 142.070312 87.023438 C 142.445312 87.207031 142.726562 87.472656 142.910156 87.824219 C 143.105469 88.164062 143.203125 88.515625 143.203125 88.878906 C 143.203125 89.414062 143.007812 89.929688 142.617188 90.421875 C 142.382812 90.734375 141.699219 91.339844 140.566406 92.238281 C 140.070312 92.628906 139.699219 92.949219 139.453125 93.195312 C 139.21875 93.445312 139.042969 93.679688 138.925781 93.898438 L 142.519531 93.898438 L 142.34375 94.816406 Z M 137.539062 94.816406 "/>
<path style=" stroke:none;fill-rule:nonzero;fill:rgb(0%,0%,0%);fill-opacity:1;" d="M 144.949219 92.179688 C 144.371094 90.914062 144.089844 89.621094 144.089844 88.292969 C 144.089844 87.410156 144.195312 86.589844 144.421875 85.832031 C 144.65625 85.066406 145.011719 84.308594 145.496094 83.566406 C 145.808594 83.058594 146.304688 82.414062 147 81.632812 L 147.78125 81.632812 C 147.351562 82.089844 146.890625 82.734375 146.414062 83.566406 C 145.945312 84.386719 145.597656 85.203125 145.378906 86.007812 C 145.152344 86.816406 145.046875 87.625 145.046875 88.429688 C 145.046875 89.640625 145.261719 90.890625 145.691406 92.179688 Z M 144.949219 92.179688 "/>
<path style=" stroke:none;fill-rule:nonzero;fill:rgb(0%,0%,0%);fill-opacity:1;" d="M 146.859375 89.816406 L 149.398438 86.847656 L 147.953125 83.976562 L 149.046875 83.976562 L 149.535156 85.011719 C 149.714844 85.402344 149.875 85.78125 150.023438 86.144531 L 151.722656 83.976562 L 152.933594 83.976562 L 150.472656 86.925781 L 151.957031 89.816406 L 150.84375 89.816406 L 150.277344 88.625 C 150.144531 88.378906 150.003906 88.066406 149.847656 87.6875 L 148.109375 89.816406 Z M 146.859375 89.816406 "/>
<path style=" stroke:none;fill-rule:nonzero;fill:rgb(0%,0%,0%);fill-opacity:1;" d="M 154.730469 81.632812 C 155.316406 82.882812 155.609375 84.171875 155.609375 85.5 C 155.609375 86.398438 155.492188 87.234375 155.257812 88 C 155.023438 88.757812 154.660156 89.503906 154.183594 90.246094 C 153.871094 90.738281 153.367188 91.382812 152.679688 92.179688 L 151.898438 92.179688 C 152.328125 91.71875 152.78125 91.074219 153.265625 90.246094 C 153.742188 89.414062 154.089844 88.601562 154.300781 87.804688 C 154.519531 87 154.632812 86.191406 154.632812 85.382812 C 154.632812 84.171875 154.417969 82.921875 153.988281 81.632812 Z M 154.730469 81.632812 "/>
<path style="fill-rule:nonzero;fill:rgb(100%,100%,100%);fill-opacity:1;stroke-width:1;stroke-linecap:round;stroke-linejoin:round;stroke:rgb(0%,0%,0%);stroke-opacity:1;stroke-miterlimit:10;" d="M 179 30 L 209 30 L 209 60 L 179 60 Z M 179 30 " transform="matrix(1.25,0,0,1.25,-36.25,32.5)"/>
<path style=" stroke:none;fill-rule:nonzero;fill:rgb(0%,0%,0%);fill-opacity:1;" d="M 195.507812 89.816406 L 196.5625 84.757812 L 195.683594 84.757812 L 195.839844 83.976562 L 196.738281 83.976562 L 196.894531 83.15625 C 196.984375 82.742188 197.074219 82.441406 197.167969 82.257812 C 197.257812 82.078125 197.40625 81.925781 197.617188 81.808594 C 197.835938 81.691406 198.128906 81.632812 198.496094 81.632812 C 198.742188 81.632812 199.105469 81.6875 199.589844 81.789062 L 199.414062 82.648438 C 199.070312 82.558594 198.789062 82.511719 198.554688 82.511719 C 198.359375 82.511719 198.207031 82.566406 198.105469 82.667969 C 198.011719 82.761719 197.929688 82.988281 197.851562 83.351562 L 197.734375 83.976562 L 198.828125 83.976562 L 198.671875 84.757812 L 197.558594 84.757812 L 196.503906 89.816406 Z M 195.507812 89.816406 "/>
<path style=" stroke:none;fill-rule:nonzero;fill:rgb(0%,0%,0%);fill-opacity:1;" d="M 198.75 92.707031 L 199.707031 92.589844 C 199.785156 93.152344 199.945312 93.554688 200.195312 93.800781 C 200.441406 94.050781 200.765625 94.171875 201.171875 94.171875 C 201.664062 94.171875 202.089844 93.996094 202.441406 93.644531 C 202.804688 93.292969 202.988281 92.890625 202.988281 92.433594 C 202.988281 92.03125 202.851562 91.707031 202.578125 91.457031 C 202.316406 91.199219 201.957031 91.066406 201.503906 91.066406 C 201.449219 91.066406 201.347656 91.074219 201.191406 91.085938 L 201.367188 90.246094 C 201.457031 90.261719 201.546875 90.265625 201.640625 90.265625 C 202.199219 90.265625 202.628906 90.128906 202.929688 89.855469 C 203.242188 89.582031 203.398438 89.246094 203.398438 88.839844 C 203.398438 88.476562 203.273438 88.171875 203.027344 87.921875 C 202.777344 87.664062 202.472656 87.53125 202.109375 87.53125 C 201.757812 87.53125 201.4375 87.664062 201.152344 87.921875 C 200.863281 88.171875 200.683594 88.535156 200.605469 89.015625 L 199.628906 88.820312 C 199.785156 88.15625 200.089844 87.644531 200.546875 87.277344 C 201 86.914062 201.546875 86.730469 202.1875 86.730469 C 202.835938 86.730469 203.363281 86.933594 203.769531 87.335938 C 204.183594 87.726562 204.394531 88.214844 204.394531 88.800781 C 204.394531 89.230469 204.28125 89.601562 204.0625 89.914062 C 203.839844 90.226562 203.507812 90.488281 203.066406 90.695312 C 203.378906 90.890625 203.613281 91.121094 203.769531 91.378906 C 203.925781 91.640625 204.003906 91.941406 204.003906 92.277344 C 204.003906 93.007812 203.730469 93.640625 203.183594 94.171875 C 202.648438 94.695312 202.003906 94.953125 201.25 94.953125 C 200.519531 94.953125 199.925781 94.753906 199.472656 94.347656 C 199.027344 93.933594 198.789062 93.386719 198.75 92.707031 Z M 198.75 92.707031 "/>
<path style=" stroke:none;fill-rule:nonzero;fill:rgb(0%,0%,0%);fill-opacity:1;" d="M 206.199219 92.179688 C 205.621094 90.914062 205.339844 89.621094 205.339844 88.292969 C 205.339844 87.410156 205.445312 86.589844 205.671875 85.832031 C 205.90625 85.066406 206.261719 84.308594 206.746094 83.566406 C 207.058594 83.058594 207.554688 82.414062 208.25 81.632812 L 209.03125 81.632812 C 208.601562 82.089844 208.140625 82.734375 207.664062 83.566406 C 207.195312 84.386719 206.847656 85.203125 206.628906 86.007812 C 206.402344 86.816406 206.296875 87.625 206.296875 88.429688 C 206.296875 89.640625 206.511719 90.890625 206.941406 92.179688 Z M 206.199219 92.179688 "/>
<path style=" stroke:none;fill-rule:nonzero;fill:rgb(0%,0%,0%);fill-opacity:1;" d="M 208.109375 89.816406 L 210.648438 86.847656 L 209.203125 83.976562 L 210.296875 83.976562 L 210.785156 85.011719 C 210.964844 85.402344 211.125 85.78125 211.273438 86.144531 L 212.972656 83.976562 L 214.183594 83.976562 L 211.722656 86.925781 L 213.207031 89.816406 L 212.09375 89.816406 L 211.527344 88.625 C 211.394531 88.378906 211.253906 88.066406 211.097656 87.6875 L 209.359375 89.816406 Z M 208.109375 89.816406 "/>
<path style=" stroke:none;fill-rule:nonzero;fill:rgb(0%,0%,0%);fill-opacity:1;" d="M 215.980469 81.632812 C 216.566406 82.882812 216.859375 84.171875 216.859375 85.5 C 216.859375 86.398438 216.742188 87.234375 216.507812 88 C 216.273438 88.757812 215.910156 89.503906 215.433594 90.246094 C 215.121094 90.738281 214.617188 91.382812 213.929688 92.179688 L 213.148438 92.179688 C 213.578125 91.71875 214.03125 91.074219 214.515625 90.246094 C 214.992188 89.414062 215.339844 88.601562 215.550781 87.804688 C 215.769531 87 215.882812 86.191406 215.882812 85.382812 C 215.882812 84.171875 215.667969 82.921875 215.238281 81.632812 Z M 215.980469 81.632812 "/>
<path style="fill-rule:nonzero;fill:rgb(100%,100%,100%);fill-opacity:1;stroke-width:1;stroke-linecap:round;stroke-linejoin:round;stroke:rgb(0%,0%,0%);stroke-opacity:1;stroke-miterlimit:10;" d="M 228 30 L 258 30 L 258 60 L 228 60 Z M 228 30 " transform="matrix(1.25,0,0,1.25,-36.25,32.5)"/>
<path style=" stroke:none;fill-rule:nonzero;fill:rgb(0%,0%,0%);fill-opacity:1;" d="M 256.757812 89.816406 L 257.8125 84.757812 L 256.933594 84.757812 L 257.089844 83.976562 L 257.988281 83.976562 L 258.144531 83.15625 C 258.234375 82.742188 258.324219 82.441406 258.417969 82.257812 C 258.507812 82.078125 258.65625 81.925781 258.867188 81.808594 C 259.085938 81.691406 259.378906 81.632812 259.746094 81.632812 C 259.992188 81.632812 260.355469 81.6875 260.839844 81.789062 L 260.664062 82.648438 C 260.320312 82.558594 260.039062 82.511719 259.804688 82.511719 C 259.609375 82.511719 259.457031 82.566406 259.355469 82.667969 C 259.261719 82.761719 259.179688 82.988281 259.101562 83.351562 L 258.984375 83.976562 L 260.078125 83.976562 L 259.921875 84.757812 L 258.808594 84.757812 L 257.753906 89.816406 Z M 256.757812 89.816406 "/>
<path style=" stroke:none;fill-rule:nonzero;fill:rgb(0%,0%,0%);fill-opacity:1;" d="M 262.734375 94.816406 L 263.164062 92.765625 L 259.882812 92.765625 L 260.097656 91.769531 L 264.609375 86.769531 L 265.410156 86.769531 L 264.355469 91.886719 L 265.46875 91.886719 L 265.292969 92.765625 L 264.160156 92.765625 L 263.730469 94.816406 Z M 263.359375 91.886719 L 264.0625 88.527344 L 261.054688 91.886719 Z M 263.359375 91.886719 "/>
<path style=" stroke:none;fill-rule:nonzero;fill:rgb(0%,0%,0%);fill-opacity:1;" d="M 267.449219 92.179688 C 266.871094 90.914062 266.589844 89.621094 266.589844 88.292969 C 266.589844 87.410156 266.695312 86.589844 266.921875 85.832031 C 267.15625 85.066406 267.511719 84.308594 267.996094 83.566406 C 268.308594 83.058594 268.804688 82.414062 269.5 81.632812 L 270.28125 81.632812 C 269.851562 82.089844 269.390625 82.734375 268.914062 83.566406 C 268.445312 84.386719 268.097656 85.203125 267.878906 86.007812 C 267.652344 86.816406 267.546875 87.625 267.546875 88.429688 C 267.546875 89.640625 267.761719 90.890625 268.191406 92.179688 Z M 267.449219 92.179688 "/>
<path style=" stroke:none;fill-rule:nonzero;fill:rgb(0%,0%,0%);fill-opacity:1;" d="M 269.359375 89.816406 L 271.898438 86.847656 L 270.453125 83.976562 L 271.546875 83.976562 L 272.035156 85.011719 C 272.214844 85.402344 272.375 85.78125 272.523438 86.144531 L 274.222656 83.976562 L 275.433594 83.976562 L 272.972656 86.925781 L 274.457031 89.816406 L 273.34375 89.816406 L 272.777344 88.625 C 272.644531 88.378906 272.503906 88.066406 272.347656 87.6875 L 270.609375 89.816406 Z M 269.359375 89.816406 "/>
<path style=" stroke:none;fill-rule:nonzero;fill:rgb(0%,0%,0%);fill-opacity:1;" d="M 277.230469 81.632812 C 277.816406 82.882812 278.109375 84.171875 278.109375 85.5 C 278.109375 86.398438 277.992188 87.234375 277.757812 88 C 277.523438 88.757812 277.160156 89.503906 276.683594 90.246094 C 276.371094 90.738281 275.867188 91.382812 275.179688 92.179688 L 274.398438 92.179688 C 274.828125 91.71875 275.28125 91.074219 275.765625 90.246094 C 276.242188 89.414062 276.589844 88.601562 276.800781 87.804688 C 277.019531 87 277.132812 86.191406 277.132812 85.382812 C 277.132812 84.171875 276.917969 82.921875 276.488281 81.632812 Z M 277.230469 81.632812 "/>
<path style="fill:none;stroke-width:1;stroke-linecap:round;stroke-linejoin:miter;stroke:rgb(0%,0%,0%);stroke-opacity:1;stroke-miterlimit:10;" d="M 60 45 L 74.1 45 " transform="matrix(1.25,0,0,1.25,-36.25,32.5)"/>
<path style="fill-rule:nonzero;fill:rgb(0%,0%,0%);fill-opacity:1;stroke-width:1;stroke-linecap:butt;stroke-linejoin:miter;stroke:rgb(0%,0%,0%);stroke-opacity:1;stroke-miterlimit:10;" d="M 78.1 45 L 74.1 43.5 L 74.1 46.5 Z M 78.1 45 " transform="matrix(1.25,0,0,1.25,-36.25,32.5)"/>
<path style="fill:none;stroke-width:1;stroke-linecap:round;stroke-linejoin:miter;stroke:rgb(0%,0%,0%);stroke-opacity:1;stroke-miterlimit:10;" d="M 110 45 L 124.1 45 " transform="matrix(1.25,0,0,1.25,-36.25,32.5)"/>
<path style="fill-rule:nonzero;fill:rgb(0%,0%,0%);fill-opacity:1;stroke-width:1;stroke-linecap:butt;stroke-linejoin:miter;stroke:rgb(0%,0%,0%);stroke-opacity:1;stroke-miterlimit:10;" d="M 128.1 45 L 124.1 43.5 L 124.1 46.5 Z M 128.1 45 " transform="matrix(1.25,0,0,1.25,-36.25,32.5)"/>
<path style="fill:none;stroke-width:1;stroke-linecap:round;stroke-linejoin:miter;stroke:rgb(0%,0%,0%);stroke-opacity:1;stroke-miterlimit:10;" d="M 160 45 L 173.1 45 " transform="matrix(1.25,0,0,1.25,-36.25,32.5)"/>
<path style="fill-rule:nonzero;fill:rgb(0%,0%,0%);fill-opacity:1;stroke-width:1;stroke-linecap:butt;stroke-linejoin:miter;stroke:rgb(0%,0%,0%);stroke-opacity:1;stroke-miterlimit:10;" d="M 177.1 45 L 173.1 43.5 L 173.1 46.5 Z M 177.1 45 " transform="matrix(1.25,0,0,1.25,-36.25,32.5)"/>
<path style="fill:none;stroke-width:1;stroke-linecap:round;stroke-linejoin:miter;stroke:rgb(0%,0%,0%);stroke-opacity:1;stroke-miterlimit:10;" d="M 209 45 L 222.1 45 " transform="matrix(1.25,0,0,1.25,-36.25,32.5)"/>
<path style="fill-rule:nonzero;fill:rgb(0%,0%,0%);fill-opacity:1;stroke-width:1;stroke-linecap:butt;stroke-linejoin:miter;stroke:rgb(0%,0%,0%);stroke-opacity:1;stroke-miterlimit:10;" d="M 226.1 45 L 222.1 43.5 L 222.1 46.5 Z M 226.1 45 " transform="matrix(1.25,0,0,1.25,-36.25,32.5)"/>
<path style="fill:none;stroke-width:1;stroke-linecap:round;stroke-linejoin:miter;stroke:rgb(0%,0%,0%);stroke-opacity:1;stroke-miterlimit:10;" d="M 60 36.9 L 94.96875 18.0125 C 96.846875 17 99.121875 17.059375 100.940625 18.16875 L 124.9625 32.796875 " transform="matrix(1.25,0,0,1.25,-36.25,32.5)"/>
<path style="fill-rule:nonzero;fill:rgb(0%,0%,0%);fill-opacity:1;stroke-width:1;stroke-linecap:butt;stroke-linejoin:miter;stroke:rgb(0%,0%,0%);stroke-opacity:1;stroke-miterlimit:10;" d="M 128.378125 34.875 L 125.74375 31.515625 L 124.18125 34.078125 Z M 128.378125 34.875 " transform="matrix(1.25,0,0,1.25,-36.25,32.5)"/>
<path style="fill:none;stroke-width:1;stroke-linecap:round;stroke-linejoin:miter;stroke:rgb(0%,0%,0%);stroke-opacity:1;stroke-miterlimit:10;" d="M 110 36.9125 L 135.996875 22.9 M 146.3375 20.815625 L 173.7375 34.71875 " transform="matrix(1.25,0,0,1.25,-36.25,32.5)"/>
<path style="fill-rule:nonzero;fill:rgb(0%,0%,0%);fill-opacity:1;stroke-width:1;stroke-linecap:butt;stroke-linejoin:miter;stroke:rgb(0%,0%,0%);stroke-opacity:1;stroke-miterlimit:10;" d="M 177.30625 36.53125 L 174.41875 33.38125 L 173.059375 36.059375 Z M 177.30625 36.53125 " transform="matrix(1.25,0,0,1.25,-36.25,32.5)"/>
<path style="fill:none;stroke-width:1;stroke-linecap:round;stroke-linejoin:miter;stroke:rgb(0%,0%,0%);stroke-opacity:1;stroke-miterlimit:10;" d="M 160 37.1125 L 168.78125 32.496875 M 178.515625 27.375 L 190.5 21.06875 C 192.221875 20.1625 194.28125 20.153125 196.01875 21.034375 L 222.746875 34.66875 " transform="matrix(1.25,0,0,1.25,-36.25,32.5)"/>
<path style="fill-rule:nonzero;fill:rgb(0%,0%,0%);fill-opacity:1;stroke-width:1;stroke-linecap:butt;stroke-linejoin:miter;stroke:rgb(0%,0%,0%);stroke-opacity:1;stroke-miterlimit:10;" d="M 226.309375 36.484375 L 223.425 33.33125 L 222.0625 36.003125 Z M 226.309375 36.484375 " transform="matrix(1.25,0,0,1.25,-36.25,32.5)"/>
<path style="fill:none;stroke-width:1;stroke-linecap:round;stroke-linejoin:miter;stroke:rgb(0%,0%,0%);stroke-opacity:1;stroke-miterlimit:10;" d="M 60 36.640625 L 126.621875 -0.49375 C 128.675 -1.6375 131.215625 -1.471875 133.109375 -0.075 L 147.90625 10.878125 M 156.746875 17.425 L 174.25625 30.3875 " transform="matrix(1.25,0,0,1.25,-36.25,32.5)"/>
<path style="fill-rule:nonzero;fill:rgb(0%,0%,0%);fill-opacity:1;stroke-width:1;stroke-linecap:butt;stroke-linejoin:miter;stroke:rgb(0%,0%,0%);stroke-opacity:1;stroke-miterlimit:10;" d="M 177.471875 32.765625 L 175.15 29.18125 L 173.36875 31.59375 Z M 177.471875 32.765625 " transform="matrix(1.25,0,0,1.25,-36.25,32.5)"/>
<path style="fill:none;stroke-width:1;stroke-linecap:round;stroke-linejoin:miter;stroke:rgb(0%,0%,0%);stroke-opacity:1;stroke-miterlimit:10;" d="M 110 36.93125 L 170.715625 4.25625 C 172.59375 3.246875 174.871875 3.309375 176.690625 4.425 L 222.96875 32.74375 " transform="matrix(1.25,0,0,1.25,-36.25,32.5)"/>
<path style="fill-rule:nonzero;fill:rgb(0%,0%,0%);fill-opacity:1;stroke-width:1;stroke-linecap:butt;stroke-linejoin:miter;stroke:rgb(0%,0%,0%);stroke-opacity:1;stroke-miterlimit:10;" d="M 226.378125 34.828125 L 223.75 31.4625 L 222.184375 34.01875 Z M 226.378125 34.828125 " transform="matrix(1.25,0,0,1.25,-36.25,32.5)"/>
<path style="fill:none;stroke-width:1;stroke-linecap:round;stroke-linejoin:miter;stroke:rgb(0%,0%,0%);stroke-opacity:1;stroke-miterlimit:10;" d="M 60 36.60625 L 152.68125 -15.265625 C 154.70625 -16.403125 157.20625 -16.2625 159.096875 -14.9125 L 223.2 30.859375 " transform="matrix(1.25,0,0,1.25,-36.25,32.5)"/>
<path style="fill-rule:nonzero;fill:rgb(0%,0%,0%);fill-opacity:1;stroke-width:1;stroke-linecap:butt;stroke-linejoin:miter;stroke:rgb(0%,0%,0%);stroke-opacity:1;stroke-miterlimit:10;" d="M 226.453125 33.184375 L 224.06875 29.640625 L 222.328125 32.08125 Z M 226.453125 33.184375 " transform="matrix(1.25,0,0,1.25,-36.25,32.5)"/>
</g>
</svg>
